<svg width="66" height="45" viewBox="0 0 66 45" fill="none" xmlns="http://www.w3.org/2000/svg">
<rect x="28" y="18.3315" width="8" height="2" fill="#3C3C43" fill-opacity="0.6"/>
<rect x="28" y="4.33154" width="8" height="2" fill="#3C3C43" fill-opacity="0.6"/>
<rect x="26" y="8.33154" width="8" height="2" transform="rotate(90 26 8.33154)" fill="#3C3C43" fill-opacity="0.6"/>
<rect x="40" y="8.33154" width="8" height="2" transform="rotate(90 40 8.33154)" fill="#3C3C43" fill-opacity="0.6"/>
<rect x="20" y="16.3315" width="8" height="8" fill="white"/>
<rect x="21" y="17.3315" width="6" height="6" stroke="#3C3C43" stroke-opacity="0.6" stroke-width="2"/>
<rect x="36" y="16.3315" width="8" height="8" fill="white"/>
<rect x="37" y="17.3315" width="6" height="6" stroke="#3C3C43" stroke-opacity="0.6" stroke-width="2"/>
<rect x="20" y="0.331543" width="8" height="8" fill="white"/>
<rect x="21" y="1.33154" width="6" height="6" stroke="#3C3C43" stroke-opacity="0.6" stroke-width="2"/>
<rect x="36" y="0.331543" width="8" height="8" fill="white"/>
<rect x="37" y="1.33154" width="6" height="6" stroke="#3C3C43" stroke-opacity="0.6" stroke-width="2"/>
<g filter="url(#filter0_dd_44_143812)">
<path d="M35.914 17.0573C35.1481 13.8513 38.3711 11.147 41.3953 12.4579L55.3314 18.4987C58.5231 19.8821 58.5497 24.3988 55.3746 25.8198L50.8661 27.8374C50.1794 28.1448 49.5932 28.6396 49.175 29.265L46.6416 33.0535C44.7017 35.9545 40.2368 35.1537 39.426 31.7594L35.914 17.0573Z" fill="#0D99FF"/>
<path d="M40.7988 13.8342L54.7349 19.875C56.7297 20.7396 56.7463 23.5625 54.7618 24.4506L50.2534 26.4683C49.3091 26.8909 48.5031 27.5712 47.9281 28.4312L45.3947 32.2197C44.1822 34.0328 41.3917 33.5323 40.8849 31.4109L37.3729 16.7088C36.8943 14.7051 38.9086 13.0148 40.7988 13.8342Z" stroke="white" stroke-width="3"/>
</g>
<defs>
<filter id="filter0_dd_44_143812" x="27.7998" y="6.11963" width="37.9404" height="38.7124" filterUnits="userSpaceOnUse" color-interpolation-filters="sRGB">
<feFlood flood-opacity="0" result="BackgroundImageFix"/>
<feColorMatrix in="SourceAlpha" type="matrix" values="0 0 0 0 0 0 0 0 0 0 0 0 0 0 0 0 0 0 127 0" result="hardAlpha"/>
<feMorphology radius="2" operator="dilate" in="SourceAlpha" result="effect1_dropShadow_44_143812"/>
<feOffset dy="2"/>
<feGaussianBlur stdDeviation="3"/>
<feColorMatrix type="matrix" values="0 0 0 0 0 0 0 0 0 0 0 0 0 0 0 0 0 0 0.15 0"/>
<feBlend mode="normal" in2="BackgroundImageFix" result="effect1_dropShadow_44_143812"/>
<feColorMatrix in="SourceAlpha" type="matrix" values="0 0 0 0 0 0 0 0 0 0 0 0 0 0 0 0 0 0 127 0" result="hardAlpha"/>
<feOffset dy="1"/>
<feGaussianBlur stdDeviation="1"/>
<feColorMatrix type="matrix" values="0 0 0 0 0 0 0 0 0 0 0 0 0 0 0 0 0 0 0.3 0"/>
<feBlend mode="normal" in2="effect1_dropShadow_44_143812" result="effect2_dropShadow_44_143812"/>
<feBlend mode="normal" in="SourceGraphic" in2="effect2_dropShadow_44_143812" result="shape"/>
</filter>
</defs>
</svg>
